inDegrees=yes
name=ik_coleta1_trike_filtrado_mov
DataType=double
version=3
OpenSimVersion=4.4-2022-07-23-0e9fedc
endheader
time	pelvis_tilt	pelvis_tx	pelvis_ty	hip_flexion_r	knee_angle_r	ankle_angle_r	hip_flexion_l	knee_angle_l	ankle_angle_l	lumbar_extension	gearToGround_coord_0	rightPedalToGear_coord_0	leftPedalToGear_coord_0
24.58847689628601	52.5	-0.7	0.0500000000000003	65.24195961145792	-41.00681567198018	-1.039076492892845e-12	80.38799999999991	-84.66000000000004	5.05043721578303e-13	2.071017320375504e-12	0	-114.0000000000003	-139.067795130823
24.5924699306488	52.5	-0.7	0.0500000000000003	64.78651817768589	-40.97671802121561	-1.039076492892845e-12	80.38799999999991	-84.66000000000004	5.05043721578303e-13	2.071017320375504e-12	0	-114.0000000000003	-139.067795130823
24.59747672080994	52.5	-0.7	0.0500000000000003	64.35103973722917	-40.97643576462002	-1.039076492892845e-12	80.38799999999991	-84.66000000000004	5.05043721578303e-13	2.071017320375504e-12	0	-114.0000000000003	-139.067795130823
24.60548782348633	52.5	-0.7	0.0500000000000003	63.93580628467809	-41.00649512033897	-1.039076492892845e-12	80.38799999999991	-84.66000000000004	5.05043721578303e-13	2.071017320375504e-12	0	-114.0000000000003	-139.067795130823
24.61147904396057	52.5	-0.7	0.0500000000000003	63.54087635992845	-41.06723026535682	-1.039076492892845e-12	80.38799999999991	-84.66000000000004	5.05043721578303e-13	2.071017320375504e-12	0	-114.0000000000003	-139.067795130823
24.62047410011292	52.5	-0.7	0.0500000000000003	63.16615493796662	-41.15885626975872	-1.039076492892845e-12	80.38799999999991	-84.66000000000004	5.05043721578303e-13	2.071017320375504e-12	0	-114.0000000000003	-139.067795130823
24.62548494338989	52.5	-0.7	0.0500000000000003	62.81146880907486	-41.28152473443214	-1.039076492892845e-12	80.38799999999991	-84.66000000000004	5.05043721578303e-13	2.071017320375504e-12	0	-114.0000000000003	-139.067795130823
24.62947773933411	52.5	-0.7	0.0500000000000003	62.49386227513277	-41.46339208788326	-1.039076492892845e-12	80.38799999999991	-84.66000000000004	5.05043721578303e-13	2.071017320375504e-12	0	-114.0000000000003	-139.067795130823
24.63447093963623	52.5	-0.7	0.0500000000000003	62.17720807093874	-41.64593909616243	-1.039076492892845e-12	80.38799999999991	-84.66000000000004	5.05043721578303e-13	2.071017320375504e-12	0	-114.0000000000003	-139.067795130823
24.64048790931702	52.5	-0.7	0.0500000000000003	61.86644580924312	-41.83747172762131	-1.039076492892845e-12	80.38799999999991	-84.66000000000004	5.05043721578303e-13	2.071017320375504e-12	0	-114.0000000000003	-139.067795130823
24.6454861164093	52.5	-0.7	0.0500000000000003	61.58960644807689	-42.08376326183096	-1.039076492892845e-12	80.38799999999991	-84.66000000000004	5.05043721578303e-13	2.071017320375504e-12	0	-114.0000000000003	-139.067795130823
24.65046882629395	52.5	-0.7	0.0500000000000003	61.33246370809088	-42.36170468634108	-1.039076492892845e-12	80.38799999999991	-84.66000000000004	5.05043721578303e-13	2.071017320375504e-12	0	-114.0000000000003	-139.067795130823
24.66247200965881	52.5	-0.7	0.0500000000000003	61.09423859713409	-42.66993807341817	-1.039076492892845e-12	80.38799999999991	-84.66000000000004	5.05043721578303e-13	2.071017320375504e-12	0	-114.0000000000003	-139.067795130823
24.66846990585327	52.5	-0.7	0.0500000000000003	60.87470596346949	-43.00786812018801	-1.039076492892845e-12	80.38799999999991	-84.66000000000004	5.05043721578303e-13	2.071017320375504e-12	0	-114.0000000000003	-139.067795130823
24.67350506782532	52.5	-0.7	0.0500000000000003	60.67362915314467	-43.37482050992152	-1.039076492892845e-12	80.38799999999991	-84.66000000000004	5.05043721578303e-13	2.071017320375504e-12	0	-114.0000000000003	-139.067795130823
24.67746615409851	52.5	-0.7	0.0500000000000003	60.49078349646498	-43.77012772947953	-1.039076492892845e-12	80.38799999999991	-84.66000000000004	5.05043721578303e-13	2.071017320375504e-12	0	-114.0000000000003	-139.067795130823
24.68148612976074	52.5	-0.7	0.0500000000000003	60.32598727681311	-44.1931777073313	-1.039076492892845e-12	80.38799999999991	-84.66000000000004	5.05043721578303e-13	2.071017320375504e-12	0	-114.0000000000003	-139.067795130823
